name C:\Users\u0150099\Documents\master_thesis\3dpredictsim\Results\Final\Fal_s1_bCst_tanh10_ig1_v27.mot
datacolumns 126
datarows 4
range 0.56943898 0.58652215
endheader
time	pelvis_tilt	pelvis_list	pelvis_rotation	pelvis_tx	pelvis_ty	pelvis_tz	hip_flexion_l	hip_adduction_l	hip_rotation_l	hip_flexion_r	hip_adduction_r	hip_rotation_r	knee_angle_l	knee_angle_r	ankle_angle_l	ankle_angle_r	subtalar_angle_l	subtalar_angle_r	mtp_angle_l	mtp_angle_r	lumbar_extension	lumbar_bending	lumbar_rotation	arm_flex_l	arm_add_l	arm_rot_l	arm_flex_r	arm_add_r	arm_rot_r	elbow_flex_l	elbow_flex_r	pro_sup_l	pro_sup_r	glut_med1_l/activation	glut_med2_l/activation	glut_med3_l/activation	glut_min1_l/activation	glut_min2_l/activation	glut_min3_l/activation	semimem_l/activation	semiten_l/activation	bifemlh_l/activation	bifemsh_l/activation	sar_l/activation	add_long_l/activation	add_brev_l/activation	add_mag1_l/activation	add_mag2_l/activation	add_mag3_l/activation	tfl_l/activation	pect_l/activation	grac_l/activation	glut_max1_l/activation	glut_max2_l/activation	glut_max3_l/activation	iliacus_l/activation	psoas_l/activation	quad_fem_l/activation	gem_l/activation	peri_l/activation	rect_fem_l/activation	vas_med_l/activation	vas_int_l/activation	vas_lat_l/activation	med_gas_l/activation	lat_gas_l/activation	soleus_l/activation	tib_post_l/activation	flex_dig_l/activation	flex_hal_l/activation	tib_ant_l/activation	per_brev_l/activation	per_long_l/activation	per_tert_l/activation	ext_dig_l/activation	ext_hal_l/activation	ercspn_l/activation	intobl_l/activation	extobl_l/activation	glut_med1_r/activation	glut_med2_r/activation	glut_med3_r/activation	glut_min1_r/activation	glut_min2_r/activation	glut_min3_r/activation	semimem_r/activation	semiten_r/activation	bifemlh_r/activation	bifemsh_r/activation	sar_r/activation	add_long_r/activation	add_brev_r/activation	add_mag1_r/activation	add_mag2_r/activation	add_mag3_r/activation	tfl_r/activation	pect_r/activation	grac_r/activation	glut_max1_r/activation	glut_max2_r/activation	glut_max3_r/activation	iliacus_r/activation	psoas_r/activation	quad_fem_r/activation	gem_r/activation	peri_r/activation	rect_fem_r/activation	vas_med_r/activation	vas_int_r/activation	vas_lat_r/activation	med_gas_r/activation	lat_gas_r/activation	soleus_r/activation	tib_post_r/activation	flex_dig_r/activation	flex_hal_r/activation	tib_ant_r/activation	per_brev_r/activation	per_long_r/activation	per_tert_r/activation	ext_dig_r/activation	ext_hal_r/activation	ercspn_r/activation	intobl_r/activation	extobl_r/activation	
          0.56943898	        -10.83622993	         -1.40841681	         -0.85047471	          1.53748526	          0.90641613	          0.00244183	          0.60433745	          0.39846214	          2.66978550	         40.75154073	          4.61328316	         -0.81707259	        -38.62892529	        -33.00698429	        -22.77543482	         -4.71071012	          2.37390707	         -9.63012818	          8.83854484	         -0.79508247	          3.41595247	          2.73582377	         -2.29124032	          2.06566569	        -13.45191671	         19.36779183	         -9.32252794	        -13.45374414	         -1.98417573	         25.12377768	         56.06006706	         86.51662706	         86.51662706	          0.08185331	          0.05298755	          0.06563497	          0.11476923	          0.08339094	          0.07876603	          0.08806966	          0.05015766	          0.05000749	          0.08334732	          0.36681693	          0.73064704	          0.10563690	          0.05992235	          0.05000390	          0.05000093	          0.97857497	          0.67080127	          0.21942262	          0.05000961	          0.05000200	          0.05000078	          0.60420863	          0.85946532	          0.56664750	          0.55383294	          0.19073707	          0.40834075	          0.06719641	          0.07186600	          0.06160670	          0.17809284	          0.17791862	          0.10648351	          0.17793619	          0.20913326	          0.20843807	          0.06469817	          0.05000049	          0.10427889	          0.05239071	          0.58235364	          0.57645669	          0.08196309	          0.16532797	          0.05000036	          0.32034506	          0.20772566	          0.14882381	          0.05002316	          0.05001475	          0.05013988	          0.58234045	          0.07880417	          0.52176444	          0.06563000	          0.06456020	          0.09424334	          0.33018029	          0.40509091	          0.34069790	          0.27252520	          0.06102272	          0.05034123	          0.21056858	          0.36918130	          0.32372645	          0.30444284	          0.05000087	          0.05000107	          0.29646863	          0.05472765	          0.34371464	          0.05000034	          0.11362182	          0.12630775	          0.13351978	          0.06387970	          0.05994133	          0.05994088	          0.31099318	          0.05000045	          0.05000027	          0.08505326	          0.29096346	          0.11214210	          0.74734460	          0.87924746	          0.51223161	          0.18949273	          0.05000044	          0.05766415	
          0.57513337	        -10.80325988	         -1.39817090	         -0.74650366	          1.55354545	          0.90430882	          0.00247857	          1.24413473	          0.37107175	          2.40461787	         40.31031622	          4.83495183	         -0.36566221	        -40.46197136	        -32.82179055	        -22.52229094	         -4.26336501	          2.65355429	        -10.22617078	          7.17983938	         -0.75380333	          3.48660811	          2.81118492	         -2.27670517	          2.03388933	        -13.44973395	         19.33116652	         -9.23606660	        -13.44971354	         -2.02063457	         25.07561742	         55.33918128	         86.51662706	         86.51662706	          0.07475831	          0.05000076	          0.05994589	          0.10482120	          0.07616302	          0.07193966	          0.09512309	          0.07072240	          0.05003476	          0.08808557	          0.35179042	          0.66773003	          0.09648534	          0.05473982	          0.05002966	          0.05000086	          0.98447017	          0.74547568	          0.25708194	          0.05000511	          0.05000165	          0.05000085	          0.55183586	          0.78496698	          0.51753151	          0.67496312	          0.17420468	          0.41117509	          0.06137185	          0.06563667	          0.05626665	          0.16265630	          0.16249769	          0.09725359	          0.16251274	          0.19100588	          0.19037085	          0.05943975	          0.05000080	          0.09524006	          0.05000082	          0.62033973	          0.62196308	          0.07486002	          0.16462766	          0.05000029	          0.36316652	          0.23590179	          0.13592467	          0.13793238	          0.06553045	          0.05001976	          0.53186323	          0.07197362	          0.47653793	          0.05994157	          0.05903438	          0.08614415	          0.30276590	          0.41452885	          0.34925222	          0.26986298	          0.05573409	          0.05045761	          0.19231825	          0.39065101	          0.33162441	          0.29158328	          0.05013521	          0.05018596	          0.27077116	          0.05002789	          0.37879084	          0.05000231	          0.20988351	          0.21242914	          0.20656121	          0.05834262	          0.05474565	          0.05474528	          0.50057849	          0.27365766	          0.05000515	          0.17571614	          0.26574279	          0.10242164	          0.68256697	          0.80303442	          0.56721074	          0.17306775	          0.05000019	          0.06877629	
          0.58082776	        -10.76845427	         -1.39377778	         -0.63551992	          1.56958810	          0.90193450	          0.00250813	          1.99202244	          0.34186443	          2.12478840	         39.84744844	          5.07351150	          0.10815437	        -42.38040413	        -33.09285048	        -22.04479280	         -3.43397232	          2.88737525	        -10.89431887	          5.79266442	         -0.59168677	          3.55701476	          2.89013218	         -2.25326782	          2.00416746	        -13.45108128	         19.27108280	         -9.11682644	        -13.45827091	         -2.01476060	         25.03678819	         54.53128744	         86.51662706	         86.51662706	          0.06827830	          0.05000217	          0.05474998	          0.09573546	          0.06956172	          0.06570535	          0.09797187	          0.11984456	          0.05000233	          0.11486669	          0.34550160	          0.60985227	          0.08812260	          0.05000074	          0.05000138	          0.05000042	          0.98874321	          0.72754720	          0.26601487	          0.05000333	          0.05000082	          0.05000027	          0.50400275	          0.71692609	          0.47267234	          0.61654826	          0.15910506	          0.37553557	          0.05605216	          0.05994730	          0.05138949	          0.14855756	          0.14841303	          0.08882368	          0.14842618	          0.17444974	          0.17386967	          0.05429567	          0.05000354	          0.08698477	          0.05000652	          0.63922337	          0.64827542	          0.07208711	          0.15035794	          0.05000010	          0.46120584	          0.39057861	          0.12414507	          0.32299524	          0.05993894	          0.20226318	          0.48576135	          0.06573507	          0.43523165	          0.05474596	          0.05474454	          0.07868151	          0.27657488	          0.43843018	          0.40965714	          0.28919370	          0.05090454	          0.07184442	          0.17564876	          0.45519620	          0.36557989	          0.30211784	          0.05749814	          0.05000344	          0.24730115	          0.05000809	          0.54967362	          0.05000027	          0.26997868	          0.26989163	          0.26048841	          0.05328549	          0.05000031	          0.05000000	          0.55864621	          0.37954904	          0.20534627	          0.27467463	          0.24270824	          0.09354375	          0.62340305	          0.73342746	          0.57146011	          0.15806635	          0.05000059	          0.06281507	
          0.58652215	        -10.73247342	         -1.39189033	         -0.51794468	          1.58560667	          0.89933620	          0.00252597	          2.83835597	          0.31160337	          1.82815423	         39.34743599	          5.32408099	          0.61146868	        -44.36139276	        -33.91829663	        -21.38625362	         -2.09559578	          3.08137306	        -11.67701913	          4.63589600	          0.01094460	          3.62601132	          2.96907819	         -2.22219003	          1.97286427	        -13.45653827	         19.18025546	         -8.96224313	        -13.47956774	         -1.95960193	         25.01740376	         53.63591300	         86.51662706	         86.51662706	          0.06235998	          0.05000058	          0.05000452	          0.08743725	          0.06353248	          0.06001112	          0.16037684	          0.16310033	          0.14179425	          0.12461337	          0.31555417	          0.55699085	          0.14713785	          0.05000740	          0.05000398	          0.05000041	          0.99184046	          0.70335772	          0.33111769	          0.05000202	          0.05000069	          0.05000029	          0.46031582	          0.65478296	          0.43170194	          0.57795883	          0.14531419	          0.36752588	          0.05119359	          0.05475109	          0.05000007	          0.13568082	          0.13554907	          0.08112448	          0.13556064	          0.15932866	          0.15879880	          0.05304853	          0.05011137	          0.07944506	          0.07564920	          0.64394518	          0.67128915	          0.09524286	          0.23670339	          0.05000045	          0.42122977	          0.35672989	          0.36508432	          0.29500062	          0.05476554	          0.18473748	          0.44365558	          0.06003728	          0.39750578	          0.05000073	          0.05000042	          0.07186232	          0.30018606	          0.50139980	          0.40917965	          0.27787820	          0.05474138	          0.06565827	          0.16042443	          0.45138751	          0.36243431	          0.29780260	          0.05251470	          0.05994086	          0.32618093	          0.05000054	          0.67358553	          0.05994167	          0.43319600	          0.40967120	          0.37405833	          0.05000001	          0.05000003	          0.12820194	          0.54654566	          0.34666053	          0.28187496	          0.25086585	          0.22167036	          0.08543540	          0.56936671	          0.66985399	          0.52192613	          0.14436518	          0.05000023	          0.05737036	
